<?xml version="1.0" encoding="UTF-8"?>
<svg width="20px" height="20px" viewBox="0 0 20 20" version="1.1" xmlns="http://www.w3.org/2000/svg" xmlns:xlink="http://www.w3.org/1999/xlink">
    <title>Icon / Logo 20*20 / kdoctor</title>
    <g id="Icon-/-Logo-20*20-/-kdoctor" stroke="none" stroke-width="1" fill="none" fill-rule="evenodd">
        <g id="kdoctor">
            <polygon id="Frame" points="0 0 20 0 20 20 0 20"></polygon>
            <g id="编组" transform="translate(0.9884, 0)">
                <path d="M9.01767987,15.9148936 C12.2172705,15.9148936 14.8115841,13.4324819 14.8115841,11.7173236 C14.8115841,11.4773151 14.7105299,11.084127 14.6143971,10.8997795 C14.0235422,9.76673633 11.7695397,9.61282503 9.01767987,9.61282503 C6.46852845,9.61282503 4.31029947,9.82559125 3.53214347,10.7398981 C3.33358986,10.9731919 3.21158407,11.3729566 3.21158407,11.7173236 C3.21158407,13.4113072 5.8180892,15.9148936 9.01767987,15.9148936 Z" id="mask-inner" fill="#2CC76A"></path>
                <path d="M9.0996558,0 C10.9693973,0 12.0344136,0.311274779 12.8836562,0.664383943 C13.7115617,1.00862126 14.9516961,3.04033613 15.4085066,6.43230582 C15.7240791,6.39220704 16.0511569,6.42549625 16.3837868,6.53110899 C17.585587,6.91269053 17.9151448,8.79824556 17.0672024,10.072994 L16.9317091,10.2645511 C16.3739806,11.0069726 15.6365583,11.4622369 15.0568076,11.5771609 L14.9905841,11.587 L14.9611967,11.6430443 C14.9045215,11.7601067 14.8391555,11.9287053 14.768472,12.1449647 C14.6091364,12.8369701 14.0983658,13.6070094 13.342244,14.2691098 C16.0272751,15.0840254 17.7779815,16.7807759 18.550354,19.3563787 C18.646554,19.6771732 18.4063334,20 18.0714251,20 L0.500164695,20 C0.185346952,20 -0.0511344292,19.7125547 0.00953805104,19.4036387 C0.518343953,16.8130366 2.10253257,15.1033285 4.70688575,14.2777817 C4.07643078,13.7311929 3.61304862,13.1109413 3.38030945,12.521975 L3.20567573,12.0211727 C3.15533684,11.8833855 3.10884417,11.7684921 3.06661136,11.6775608 L3.02058407,11.585 L2.96636056,11.5771609 C2.38660981,11.4622369 1.64918752,11.0069726 1.091459,10.2645511 L0.955965723,10.072994 C0.108023348,8.79824556 0.437581106,6.91269053 1.63938136,6.53110899 C1.97183829,6.42555116 2.29874897,6.39224168 2.61461365,6.43095291 C3.0710235,3.04154961 4.31165134,1.00872405 5.13980401,0.664383943 L5.46953468,0.534455244 C6.21085027,0.259472288 7.14321019,0.0343406572 8.5825145,0.00358196997 L8.92380445,0 C8.95380031,0 8.98337686,0.00166603235 9.0125315,0.00494464147 L9.0996558,0 Z M3.76446037,15.7456161 C2.52663263,16.4090087 1.6887203,17.3883761 1.23590828,18.684595 L1.1351647,19 L5.598,19 L3.82755033,17.4 L4.81535115,16.4987626 L3.76446037,15.7456161 Z M14.3067782,15.7129884 L13.21063,16.4987626 L14.1984309,17.4 L12.427,19 L17.3661647,19 L17.3391537,18.9295816 C16.7425649,17.4894728 15.7366298,16.4174416 14.3067782,15.7129884 Z M6.14186646,15.2287748 L7.851,19 L10.174,19 L11.8798154,15.2385557 C11.0354956,15.6521474 10.05862,15.9148936 9.01767987,15.9148936 C7.97237072,15.9148936 6.99036366,15.6476771 6.14186646,15.2287748 Z M9.01767987,10.612825 L8.39123172,10.6181948 C6.07056046,10.6592273 4.68022135,10.9338472 4.29367362,11.3880276 C4.26479195,11.4219626 4.21158407,11.5875368 4.21158407,11.7173236 C4.21158407,13.0163282 6.59503438,14.9148936 9.01767987,14.9148936 C11.4471529,14.9148936 13.8115841,13.031972 13.8115841,11.7173236 C13.8115841,11.6472497 13.753571,11.4117414 13.7277166,11.3621622 C13.4768184,10.8810313 12.0154661,10.612825 9.01767987,10.612825 Z M9.0125315,6.27245756 C6.75748678,6.27245756 5.01058739,6.40589907 3.77183333,6.67278211 L3.77277593,8.17973383 L2.95676914,7.66159333 C2.64743821,7.46517721 2.33022093,7.42651353 1.96091047,7.54377267 C1.52798784,7.68122919 1.34343823,8.73712436 1.84060932,9.48454317 C2.2681273,10.1272494 2.8569707,10.4857554 3.16943098,10.5371071 L3.24153476,10.5435327 C3.39403606,10.5435327 3.51155737,10.5797476 3.60979978,10.6567447 L3.63208323,10.6335174 C4.44810409,9.84326901 6.39873005,9.63025666 8.71372143,9.61387759 L9.57954416,9.61529183 C11.8503794,9.63662429 13.705343,9.80958585 14.4336624,10.6375226 C14.5026389,10.5899278 14.5833184,10.5608559 14.6797716,10.5492946 L14.7816334,10.5435327 C15.0669366,10.5435327 15.7194143,10.1808083 16.1825588,9.48454317 C16.6797299,8.73712436 16.4951803,7.68122919 16.0622577,7.54377267 C15.6929472,7.42651353 15.3757299,7.46517721 15.066399,7.66159333 L14.2503922,8.17973383 L14.2512196,6.67253392 C13.0131064,6.40581634 11.2668771,6.27245756 9.0125315,6.27245756 Z M5.91158407,7.5 C6.40864035,7.5 6.81158407,7.90294373 6.81158407,8.4 C6.81158407,8.89705627 6.40864035,9.3 5.91158407,9.3 C5.4145278,9.3 5.01158407,8.89705627 5.01158407,8.4 C5.01158407,7.90294373 5.4145278,7.5 5.91158407,7.5 Z M12.1115841,7.5 C12.6086403,7.5 13.0115841,7.90294373 13.0115841,8.4 C13.0115841,8.89705627 12.6086403,9.3 12.1115841,9.3 C11.6145278,9.3 11.2115841,8.89705627 11.2115841,8.4 C11.2115841,7.90294373 11.6145278,7.5 12.1115841,7.5 Z" id="doctor" fill="#1D1D1D"></path>
                <path d="M9.01158407,1.25 C9.31534068,1.25 9.56158407,1.49624339 9.56158407,1.8 L9.51158407,2.75 L10.5115841,2.75 C10.8153407,2.75 11.0615841,2.99624339 11.0615841,3.3 C11.0615841,3.60375661 10.8153407,3.85 10.5115841,3.85 L9.56158407,3.8 L9.56158407,4.8 C9.56158407,5.10375661 9.31534068,5.35 9.01158407,5.35 C8.70782746,5.35 8.46158407,5.10375661 8.46158407,4.8 L8.51058407,3.849 L7.51158407,3.85 C7.20782746,3.85 6.96158407,3.60375661 6.96158407,3.3 C6.96158407,2.99624339 7.20782746,2.75 7.51158407,2.75 L8.46158407,2.799 L8.46158407,1.8 C8.46158407,1.49624339 8.70782746,1.25 9.01158407,1.25 Z" id="cross" fill="#2CC76A" fill-rule="nonzero"></path>
            </g>
        </g>
    </g>
</svg>